<?xml version="1.0" standalone="no"?>
<!DOCTYPE svg PUBLIC "-//W3C//DTD SVG 20010904//EN"
 "http://www.w3.org/TR/2001/REC-SVG-20010904/DTD/svg10.dtd">
<svg version="1.0" xmlns="http://www.w3.org/2000/svg"
 width="582.000000pt" height="582.000000pt" viewBox="0 0 582.000000 582.000000"
 preserveAspectRatio="xMidYMid meet">
<metadata>
Created by potrace 1.14, written by Peter Selinger 2001-2017
</metadata>
<g transform="translate(0.000000,582.000000) scale(0.100000,-0.100000)"
fill="#000000" stroke="none">
<path d="M2590 5803 c-343 -27 -676 -131 -960 -303 -590 -355 -978 -951 -1060
-1630 -13 -110 -13 -393 1 -500 l10 -85 -33 -25 c-65 -48 -127 -121 -147 -173
-59 -158 -26 -278 91 -332 l47 -22 -30 -29 c-43 -41 -89 -139 -89 -189 0 -81
60 -95 200 -48 44 15 81 25 83 22 2 -2 14 -31 29 -65 l25 -61 -46 -12 c-96
-25 -163 -97 -177 -189 -16 -105 39 -169 186 -221 52 -18 100 -37 106 -42 6
-5 14 -55 17 -111 5 -80 12 -112 32 -154 45 -91 130 -122 253 -90 l63 16 61
-66 c205 -219 519 -326 958 -326 262 0 481 30 795 108 111 28 391 115 475 148
11 4 20 -7 34 -41 27 -65 96 -136 159 -164 78 -35 183 -33 259 4 96 47 162
140 175 245 7 66 -22 134 -72 163 -20 12 -35 23 -33 24 2 1 55 31 118 65 657
359 1077 774 1181 1165 29 108 31 271 5 377 l-19 76 31 39 c71 88 100 217 68
309 -9 26 -23 55 -32 65 -19 21 -11 39 16 39 10 0 31 10 45 23 66 56 7 191
-124 288 l-64 47 2 64 c4 116 -64 266 -156 348 -76 66 -136 84 -285 84 l-127
-1 -16 44 c-35 92 -190 305 -328 450 -432 455 -1105 714 -1727 666z m346 -104
c487 -47 918 -247 1259 -582 l110 -109 -100 80 c-332 266 -705 431 -1122 497
-38 6 -42 4 -58 -23 -26 -42 -88 -79 -166 -96 -167 -39 -360 6 -413 94 l-16
28 -77 -15 c-447 -82 -841 -280 -1178 -593 l-70 -65 42 51 c73 88 275 276 369
343 426 302 922 439 1420 390z m230 -351 c51 -34 114 -117 114 -149 0 -14 -7
-19 -27 -19 -73 0 -205 154 -166 193 12 13 31 7 79 -25z m-294 -235 c106 -112
111 -263 5 -156 -59 58 -104 163 -80 186 15 16 41 5 75 -30z m-1162 -82 c0
-91 -64 -213 -103 -198 -39 15 -8 173 45 229 23 25 31 28 43 18 8 -7 15 -29
15 -49z m340 -10 c39 -73 -26 -282 -75 -241 -33 28 -12 193 31 241 22 24 31
24 44 0z m438 -6 c40 -51 51 -206 17 -235 -20 -16 -34 -4 -58 49 -34 77 -25
211 13 211 5 0 17 -11 28 -25z m2628 -860 c-32 -49 -136 -84 -446 -149 -244
-51 -305 -78 -335 -149 l-13 -30 -7 41 c-6 37 -3 46 22 76 35 43 96 67 238 96
312 62 497 119 536 167 13 15 14 14 17 -6 2 -12 -3 -33 -12 -46z m-759 -571
c-7 -73 -40 -164 -74 -205 -31 -36 -84 -64 -138 -73 l-40 -6 46 25 c26 13 61
38 78 56 59 59 110 188 112 283 l1 51 10 -35 c6 -19 8 -62 5 -96z m922 -83
c-29 -68 -107 -139 -211 -190 -45 -22 -83 -39 -85 -37 -9 9 48 63 145 137 59
45 120 97 136 116 16 18 31 32 33 29 2 -2 -6 -27 -18 -55z m-1628 -207 c-32
-41 -35 -81 -11 -174 21 -83 28 -208 14 -267 -21 -91 -97 -185 -178 -218 -58
-24 -62 -17 -13 26 103 90 150 259 126 447 -17 127 -16 158 5 181 16 17 29 23
69 30 5 0 -1 -11 -12 -25z m1249 -444 c-20 -37 -74 -51 -259 -66 -316 -25
-352 -44 -557 -299 -61 -77 -125 -149 -140 -161 -46 -33 -62 -38 -26 -9 18 15
85 98 150 184 64 86 137 176 162 201 84 85 177 114 412 129 100 7 175 17 210
29 29 10 54 17 56 16 2 -1 -2 -12 -8 -24z m-2346 -132 c-25 -23 -61 -63 -80
-90 -47 -64 -133 -124 -212 -148 -94 -29 -116 -26 -61 8 50 33 90 70 172 165
62 71 99 97 157 107 66 12 72 2 24 -42z m1029 -266 c-7 -130 9 -239 58 -374
21 -60 39 -127 39 -148 0 -42 -20 -70 -50 -70 -15 0 -17 5 -10 34 10 45 -1 92
-46 201 -43 104 -55 220 -34 327 12 62 34 128 44 128 2 0 2 -44 -1 -98z m-321
-89 c37 -34 12 -91 -84 -189 -62 -64 -126 -97 -200 -102 -92 -7 -103 5 -33 34
78 32 118 72 166 166 21 42 49 84 61 92 29 21 67 20 90 -1z m728 -823 c35 -35
23 -64 -45 -103 -7 -4 -11 17 -10 59 0 54 3 64 18 64 9 0 26 -9 37 -20z"/>
<path d="M2330 484 c-958 -42 -1500 -127 -1500 -235 0 -129 963 -239 2095
-239 1131 0 2085 110 2085 239 0 94 -401 168 -1195 222 -150 10 -1320 20
-1485 13z"/>
</g>
</svg>
